<svg xmlns:xlink="http://www.w3.org/1999/xlink" xmlns="http://www.w3.org/2000/svg" class="svg-standalone-icon" width="441" viewBox="211.44368857818074 114.99999999999997 127.11262284363852 144.2293336459828" height="500" ><g data-paper-data="{&quot;selectedEffects&quot;:{&quot;container&quot;:&quot;&quot;,&quot;transformation&quot;:&quot;&quot;,&quot;pattern&quot;:&quot;&quot;},&quot;initialText&quot;:&quot;OO&quot;,&quot;isIcon&quot;:&quot;true&quot;,&quot;iconType&quot;:&quot;initial&quot;,&quot;iconStyle&quot;:&quot;standalone&quot;,&quot;rawInitialId&quot;:543,&quot;monogramSpecial&quot;:&quot;melted-letters&quot;,&quot;bounds&quot;:{&quot;x&quot;:211.44368857818074,&quot;y&quot;:114.99999999999997,&quot;width&quot;:127.11262284363852,&quot;height&quot;:144.2293336459828},&quot;fillRule&quot;:&quot;nonzero&quot;,&quot;suitableAsStandaloneIcon&quot;:true}" fill-rule="nonzero" fill="#AAAAAA"><path d="M244.97561,133.23912c3.50752,-0.2806 8.13745,-0.4209 14.45099,-0.4209c4.06873,-4.77023 9.25986,-7.01505 15.4331,-7.01505c6.59414,0 12.06588,2.10451 16.27491,7.01505c3.36722,4.62993 4.62993,5.89264 7.01505,13.74949c2.80602,9.40016 4.34933,22.58845 4.34933,39.84546c0,17.53761 -1.54331,31.1468 -4.62993,41.10817c4.06873,0 12.06588,-0.7015 12.90768,-1.12241c2.80602,-10.94347 4.06873,-24.41236 4.06873,-40.40666c0,-15.1525 -1.12241,-27.91988 -3.64782,-38.16185c-0.7015,-2.80602 -2.52542,-9.25986 -4.48963,-13.18829c-6.31354,-13.04798 -16.55551,-19.64213 -31.5677,-19.64213c-13.46889,0 -23.43025,6.17324 -30.1647,18.23912zM229.2619,222.8914c-4.20903,-4.48963 -5.33143,-12.06588 -5.33143,-35.77673c0,-23.85115 1.12241,-31.2871 5.33143,-35.77673c5.05083,-5.33143 13.88979,-5.89264 24.83326,-6.17324c5.61204,-0.1403 12.62708,-0.2806 21.46604,-0.2806c8.41805,0 15.2928,0.1403 20.76453,0.2806c-0.98211,-3.36722 -3.22692,-7.99715 -5.75234,-11.08377c-4.48963,-0.1403 -9.40016,-0.1403 -15.0122,-0.1403c-5.89264,0 -10.94347,0.1403 -15.5734,0.1403c-5.75234,0.1403 -11.50467,0.1403 -17.25701,0.5612c-13.88979,0.98211 -18.37942,3.50752 -23.28995,8.83896c-6.45384,7.01505 -7.99715,15.1525 -7.99715,43.63358c0,28.48108 1.54331,36.61854 7.99715,43.63358c4.91053,5.33143 9.25986,7.71655 22.86905,8.69866c-1.68361,-3.36722 -3.08662,-7.29565 -4.20903,-11.64498c-4.48963,-0.98211 -6.59414,-2.52542 -8.83896,-4.91053zM330.55916,143.48108c-4.91053,-5.19113 -9.40016,-7.57625 -22.44815,-8.69866c1.68361,3.50752 2.94632,7.43595 4.06873,11.92558c4.34933,0.98211 6.73444,2.38512 8.55836,4.62993c4.20903,4.48963 5.47174,11.92558 5.47174,35.77673c0,23.71085 -1.26271,31.2871 -5.47174,35.77673c-4.91053,5.19113 -13.74949,5.89264 -24.69296,6.17324c-5.47174,0.1403 -12.34648,0.2806 -21.18544,0.2806c-8.41805,0 -15.2928,-0.1403 -20.62423,-0.2806c0.4209,1.26271 0.84181,2.52542 1.40301,3.64782c1.26271,2.94632 2.66572,5.33143 4.34933,7.43595c4.34933,0 9.40016,0.1403 14.8719,0.1403c5.89264,0 10.94347,-0.1403 15.4331,-0.1403c12.76738,-0.4209 15.9943,-0.5612 17.25701,-0.7015c13.60919,-0.98211 18.09882,-3.36722 23.00935,-8.69866c6.45384,-7.01505 7.99715,-15.1525 7.99715,-43.77388c0,-28.34078 -1.40301,-36.47824 -7.99715,-43.49328zM305.305,240.99022l-14.31069,0.4209c-4.20903,4.91053 -9.40016,7.29565 -15.9943,7.29565c-6.31354,0 -11.64498,-2.38512 -15.5734,-7.29565c-3.50752,-4.48963 -5.75234,-9.11956 -7.15535,-13.60919c-3.08662,-10.24197 -4.77023,-23.99146 -4.77023,-41.80967c0,-16.69581 1.68361,-29.74379 4.77023,-39.42456c-1.12241,-0.1403 -9.96136,0.4209 -12.90768,1.12241c-2.80602,10.52257 -4.20903,23.43025 -4.20903,38.72305c0,28.90199 3.78812,39.56486 4.34933,41.38877c0.1403,0.2806 1.96421,7.01505 4.20903,11.78528c6.31354,12.90768 16.27491,19.64213 30.8662,19.64213c14.45099,0 24.41236,-6.45384 30.7259,-18.23912z" data-paper-data="{&quot;isPathIcon&quot;:true}" fill="#AAAAAA"></path></g></svg>