<svg xmlns:mydata="http://www.w3.org/2000/svg" mydata:contrastcolor="ffffff" mydata:template="InvertedHex1" mydata:presentation="2.5" mydata:layouttype="undefined" mydata:specialfontid="undefined" mydata:id1="544" mydata:id2="544" mydata:companyname="OrbiTI" mydata:companytagline="" version="1.1" xmlns="http://www.w3.org/2000/svg" xmlns:xlink="http://www.w3.org/1999/xlink" viewBox="0 0 550 470" width="550"  height="470" ><g fill="#FFFFFF" fill-rule="nonzero" stroke="none" stroke-width="1" stroke-linecap="butt" stroke-linejoin="miter" stroke-miterlimit="10" stroke-dasharray="" stroke-dashoffset="0" font-family="none" font-weight="none" font-size="none" text-anchor="none" style="mix-blend-mode: normal"><g data-paper-data="{&quot;isGlobalGroup&quot;:true,&quot;bounds&quot;:{&quot;x&quot;:114.78534608468476,&quot;y&quot;:114.99999999999997,&quot;width&quot;:320.4293078306305,&quot;height&quot;:240.00000000000003}}" fill="#FFFFFF"><g data-paper-data="{&quot;isPrimaryText&quot;:true}" fill="#FFFFFF"><path d="M148.18101,290.63936c-17.12056,0 -33.39567,11.20234 -33.39567,32.12748c0,20.81945 16.2751,32.02179 33.39567,32.02179c17.12056,0 33.28998,-11.20234 33.28998,-32.02179c0,-20.92513 -16.16942,-32.12748 -33.28998,-32.12748zM148.18101,350.13861c-14.68987,0 -24.41266,-12.25917 -24.41266,-27.37176c0,-15.1126 9.72279,-27.37176 24.41266,-27.37176c14.68987,0 24.30697,12.25917 24.30697,27.37176c0,15.1126 -9.61711,27.37176 -24.30697,27.37176z" data-paper-data="{&quot;glyphName&quot;:&quot;O&quot;,&quot;glyphIndex&quot;:0,&quot;firstGlyphOfWord&quot;:true,&quot;word&quot;:1}" fill="#FFFFFF"></path><path d="M243.08389,353.30908c-2.95911,-1.16251 -5.38981,-3.48752 -6.76368,-6.44663c-1.16251,-2.64206 -2.64206,-5.91822 -4.33298,-9.61711c-2.21933,-4.96708 -4.65003,-10.2512 -8.03187,-14.16145c9.19438,-2.53638 11.62507,-8.66596 11.62507,-15.74669c0,-9.30006 -4.12162,-16.80352 -22.19332,-16.80352h-23.98993v0.84546l1.69092,0.63409c2.64206,1.05682 4.33298,3.5932 4.33298,6.44663v48.50826c0,2.85343 -1.69092,5.38981 -4.33298,6.44663l-1.69092,0.63409v0.84546h21.34786v-0.84546l-1.69092,-0.63409c-2.64206,-1.05682 -4.33298,-3.5932 -4.33298,-6.44663v-22.51037h7.60914c4.33298,0 7.18641,8.03187 11.09666,16.69783c4.65003,10.35688 6.12958,13.63304 6.12958,13.63304h14.90123v-0.84546zM218.77692,319.06795c-1.7966,0.52841 -3.69889,0.73978 -5.49549,0.73978h-8.66596v-24.41266h8.66596c5.60117,0 12.89326,1.58524 12.89326,12.25917c0,7.29209 -3.38184,10.35688 -7.29209,11.51939z" data-paper-data="{&quot;glyphName&quot;:&quot;R&quot;,&quot;glyphIndex&quot;:1,&quot;word&quot;:1}" fill="#FFFFFF"></path><path d="M290.32396,319.80773c5.07276,-2.74774 8.24323,-7.18641 8.24323,-12.99895c0,-13.84441 -9.82847,-16.16942 -22.08764,-16.16942h-23.98993v0.84546l1.69092,0.63409c2.64206,1.05682 4.33298,3.5932 4.33298,6.44663v48.50826c0,2.85343 -1.69092,5.38981 -4.33298,6.44663l-1.69092,0.63409v0.84546h26.5263c15.64101,0 25.04675,-6.76368 25.04675,-18.17739c0,-8.24323 -5.07276,-14.05577 -13.84441,-16.59215zM276.37387,295.60644c5.60117,0 12.78758,1.47955 12.78758,11.51939c0,10.03984 -7.18641,11.51939 -12.78758,11.51939h-8.66596v-23.14447zM278.91025,350.34997h-11.20234v-27.05472h11.20234c11.41371,0 15.74669,3.80457 15.74669,13.52736c0,11.30803 -8.4546,13.52736 -15.85237,13.52736z" data-paper-data="{&quot;glyphName&quot;:&quot;B&quot;,&quot;glyphIndex&quot;:2,&quot;word&quot;:1}" fill="#FFFFFF"></path><path d="M331.64581,292.01324l1.69092,-0.63409v-0.84546h-21.34786v0.84546l1.69092,0.63409c2.64206,1.05682 4.33298,3.5932 4.33298,6.44663v48.50826c0,2.85343 -1.69092,5.38981 -4.33298,6.44663l-1.69092,0.63409v0.84546h21.34786v-0.84546l-1.69092,-0.63409c-2.64206,-1.05682 -4.33298,-3.5932 -4.33298,-6.44663v-48.50826c0,-2.85343 1.69092,-5.38981 4.33298,-6.44663z" data-paper-data="{&quot;glyphName&quot;:&quot;I&quot;,&quot;glyphIndex&quot;:3,&quot;word&quot;:1}" fill="#FFFFFF"></path><path d="M401.50194,290.63936h-55.80035l-1.7966,12.47053l0.84546,0.10568l4.96708,-5.60117c1.26819,-1.47955 3.17047,-2.32501 5.07276,-2.32501h14.16145v51.67874c0,2.85343 -1.69092,5.38981 -4.33298,6.44663l-1.69092,0.63409v0.84546h21.34786v-0.84546l-1.69092,-0.63409c-2.64206,-1.05682 -4.33298,-3.5932 -4.33298,-6.44663v-51.67874h14.16145c1.90228,0 3.80457,0.84546 5.07276,2.32501l4.96708,5.60117l0.84546,-0.10568z" data-paper-data="{&quot;glyphName&quot;:&quot;T&quot;,&quot;glyphIndex&quot;:4,&quot;word&quot;:1}" fill="#FFFFFF"></path><path d="M433.52373,292.01324l1.69092,-0.63409v-0.84546h-21.34786v0.84546l1.69092,0.63409c2.64206,1.05682 4.33298,3.5932 4.33298,6.44663v48.50826c0,2.85343 -1.69092,5.38981 -4.33298,6.44663l-1.69092,0.63409v0.84546h21.34786v-0.84546l-1.69092,-0.63409c-2.64206,-1.05682 -4.33298,-3.5932 -4.33298,-6.44663v-48.50826c0,-2.85343 1.69092,-5.38981 4.33298,-6.44663z" data-paper-data="{&quot;glyphName&quot;:&quot;I&quot;,&quot;glyphIndex&quot;:5,&quot;lastGlyphOfWord&quot;:true,&quot;word&quot;:1}" fill="#FFFFFF"></path></g><g data-paper-data="{&quot;selectedEffects&quot;:{&quot;container&quot;:&quot;&quot;,&quot;transformation&quot;:&quot;&quot;,&quot;pattern&quot;:&quot;&quot;},&quot;initialText&quot;:&quot;OO&quot;,&quot;isIcon&quot;:&quot;true&quot;,&quot;iconType&quot;:&quot;initial&quot;,&quot;iconStyle&quot;:&quot;standalone&quot;,&quot;rawInitialId&quot;:543,&quot;monogramSpecial&quot;:&quot;melted-letters&quot;,&quot;bounds&quot;:{&quot;x&quot;:211.44368857818074,&quot;y&quot;:114.99999999999997,&quot;width&quot;:127.11262284363852,&quot;height&quot;:144.2293336459828},&quot;fillRule&quot;:&quot;nonzero&quot;,&quot;suitableAsStandaloneIcon&quot;:true}" fill="#FFFFFF"><path d="M244.97561,133.23912c3.50752,-0.2806 8.13745,-0.4209 14.45099,-0.4209c4.06873,-4.77023 9.25986,-7.01505 15.4331,-7.01505c6.59414,0 12.06588,2.10451 16.27491,7.01505c3.36722,4.62993 4.62993,5.89264 7.01505,13.74949c2.80602,9.40016 4.34933,22.58845 4.34933,39.84546c0,17.53761 -1.54331,31.1468 -4.62993,41.10817c4.06873,0 12.06588,-0.7015 12.90768,-1.12241c2.80602,-10.94347 4.06873,-24.41236 4.06873,-40.40666c0,-15.1525 -1.12241,-27.91988 -3.64782,-38.16185c-0.7015,-2.80602 -2.52542,-9.25986 -4.48963,-13.18829c-6.31354,-13.04798 -16.55551,-19.64213 -31.5677,-19.64213c-13.46889,0 -23.43025,6.17324 -30.1647,18.23912zM229.2619,222.8914c-4.20903,-4.48963 -5.33143,-12.06588 -5.33143,-35.77673c0,-23.85115 1.12241,-31.2871 5.33143,-35.77673c5.05083,-5.33143 13.88979,-5.89264 24.83326,-6.17324c5.61204,-0.1403 12.62708,-0.2806 21.46604,-0.2806c8.41805,0 15.2928,0.1403 20.76453,0.2806c-0.98211,-3.36722 -3.22692,-7.99715 -5.75234,-11.08377c-4.48963,-0.1403 -9.40016,-0.1403 -15.0122,-0.1403c-5.89264,0 -10.94347,0.1403 -15.5734,0.1403c-5.75234,0.1403 -11.50467,0.1403 -17.25701,0.5612c-13.88979,0.98211 -18.37942,3.50752 -23.28995,8.83896c-6.45384,7.01505 -7.99715,15.1525 -7.99715,43.63358c0,28.48108 1.54331,36.61854 7.99715,43.63358c4.91053,5.33143 9.25986,7.71655 22.86905,8.69866c-1.68361,-3.36722 -3.08662,-7.29565 -4.20903,-11.64498c-4.48963,-0.98211 -6.59414,-2.52542 -8.83896,-4.91053zM330.55916,143.48108c-4.91053,-5.19113 -9.40016,-7.57625 -22.44815,-8.69866c1.68361,3.50752 2.94632,7.43595 4.06873,11.92558c4.34933,0.98211 6.73444,2.38512 8.55836,4.62993c4.20903,4.48963 5.47174,11.92558 5.47174,35.77673c0,23.71085 -1.26271,31.2871 -5.47174,35.77673c-4.91053,5.19113 -13.74949,5.89264 -24.69296,6.17324c-5.47174,0.1403 -12.34648,0.2806 -21.18544,0.2806c-8.41805,0 -15.2928,-0.1403 -20.62423,-0.2806c0.4209,1.26271 0.84181,2.52542 1.40301,3.64782c1.26271,2.94632 2.66572,5.33143 4.34933,7.43595c4.34933,0 9.40016,0.1403 14.8719,0.1403c5.89264,0 10.94347,-0.1403 15.4331,-0.1403c12.76738,-0.4209 15.9943,-0.5612 17.25701,-0.7015c13.60919,-0.98211 18.09882,-3.36722 23.00935,-8.69866c6.45384,-7.01505 7.99715,-15.1525 7.99715,-43.77388c0,-28.34078 -1.40301,-36.47824 -7.99715,-43.49328zM305.305,240.99022l-14.31069,0.4209c-4.20903,4.91053 -9.40016,7.29565 -15.9943,7.29565c-6.31354,0 -11.64498,-2.38512 -15.5734,-7.29565c-3.50752,-4.48963 -5.75234,-9.11956 -7.15535,-13.60919c-3.08662,-10.24197 -4.77023,-23.99146 -4.77023,-41.80967c0,-16.69581 1.68361,-29.74379 4.77023,-39.42456c-1.12241,-0.1403 -9.96136,0.4209 -12.90768,1.12241c-2.80602,10.52257 -4.20903,23.43025 -4.20903,38.72305c0,28.90199 3.78812,39.56486 4.34933,41.38877c0.1403,0.2806 1.96421,7.01505 4.20903,11.78528c6.31354,12.90768 16.27491,19.64213 30.8662,19.64213c14.45099,0 24.41236,-6.45384 30.7259,-18.23912z" data-paper-data="{&quot;isPathIcon&quot;:true}" fill="#FFFFFF"></path></g></g></g></svg>