<svg xmlns:mydata="http://www.w3.org/2000/svg" mydata:contrastcolor="ffffff" mydata:template="InvertedHex1" mydata:presentation="2.5" mydata:layouttype="undefined" mydata:specialfontid="undefined" mydata:id1="544" mydata:id2="544" mydata:companyname="OrbiTI" mydata:companytagline="" version="1.1" xmlns="http://www.w3.org/2000/svg" xmlns:xlink="http://www.w3.org/1999/xlink" viewBox="114.78534608468476 114.99999999999997 320.4293078306305 240.00000000000003" class="watermark-logo" width="320.4293078306305"  height="240.00000000000003" ><g fill="#6D2077" fill-rule="nonzero" stroke="none" stroke-width="1" stroke-linecap="butt" stroke-linejoin="miter" stroke-miterlimit="10" stroke-dasharray="" stroke-dashoffset="0" font-family="none" font-weight="none" font-size="none" text-anchor="none" style="mix-blend-mode: normal"><g data-paper-data="{&quot;isGlobalGroup&quot;:true,&quot;bounds&quot;:{&quot;x&quot;:114.78534608468476,&quot;y&quot;:114.99999999999997,&quot;width&quot;:320.4293078306305,&quot;height&quot;:240.00000000000003}}" fill="#6D2077"><g data-paper-data="{&quot;isPrimaryText&quot;:true}" fill="#6D2077"><path d="M148.18101,290.63936c-17.12056,0 -33.39567,11.20234 -33.39567,32.12748c0,20.81945 16.2751,32.02179 33.39567,32.02179c17.12056,0 33.28998,-11.20234 33.28998,-32.02179c0,-20.92513 -16.16942,-32.12748 -33.28998,-32.12748zM148.18101,350.13861c-14.68987,0 -24.41266,-12.25917 -24.41266,-27.37176c0,-15.1126 9.72279,-27.37176 24.41266,-27.37176c14.68987,0 24.30697,12.25917 24.30697,27.37176c0,15.1126 -9.61711,27.37176 -24.30697,27.37176z" data-paper-data="{&quot;glyphName&quot;:&quot;O&quot;,&quot;glyphIndex&quot;:0,&quot;firstGlyphOfWord&quot;:true,&quot;word&quot;:1}" style="" fill="#FFFFFF"></path><path d="M243.08389,353.30908c-2.95911,-1.16251 -5.38981,-3.48752 -6.76368,-6.44663c-1.16251,-2.64206 -2.64206,-5.91822 -4.33298,-9.61711c-2.21933,-4.96708 -4.65003,-10.2512 -8.03187,-14.16145c9.19438,-2.53638 11.62507,-8.66596 11.62507,-15.74669c0,-9.30006 -4.12162,-16.80352 -22.19332,-16.80352h-23.98993v0.84546l1.69092,0.63409c2.64206,1.05682 4.33298,3.5932 4.33298,6.44663v48.50826c0,2.85343 -1.69092,5.38981 -4.33298,6.44663l-1.69092,0.63409v0.84546h21.34786v-0.84546l-1.69092,-0.63409c-2.64206,-1.05682 -4.33298,-3.5932 -4.33298,-6.44663v-22.51037h7.60914c4.33298,0 7.18641,8.03187 11.09666,16.69783c4.65003,10.35688 6.12958,13.63304 6.12958,13.63304h14.90123v-0.84546zM218.77692,319.06795c-1.7966,0.52841 -3.69889,0.73978 -5.49549,0.73978h-8.66596v-24.41266h8.66596c5.60117,0 12.89326,1.58524 12.89326,12.25917c0,7.29209 -3.38184,10.35688 -7.29209,11.51939z" data-paper-data="{&quot;glyphName&quot;:&quot;R&quot;,&quot;glyphIndex&quot;:1,&quot;word&quot;:1}" style="" fill="#FFFFFF"></path><path d="M290.32396,319.80773c5.07276,-2.74774 8.24323,-7.18641 8.24323,-12.99895c0,-13.84441 -9.82847,-16.16942 -22.08764,-16.16942h-23.98993v0.84546l1.69092,0.63409c2.64206,1.05682 4.33298,3.5932 4.33298,6.44663v48.50826c0,2.85343 -1.69092,5.38981 -4.33298,6.44663l-1.69092,0.63409v0.84546h26.5263c15.64101,0 25.04675,-6.76368 25.04675,-18.17739c0,-8.24323 -5.07276,-14.05577 -13.84441,-16.59215zM276.37387,295.60644c5.60117,0 12.78758,1.47955 12.78758,11.51939c0,10.03984 -7.18641,11.51939 -12.78758,11.51939h-8.66596v-23.14447zM278.91025,350.34997h-11.20234v-27.05472h11.20234c11.41371,0 15.74669,3.80457 15.74669,13.52736c0,11.30803 -8.4546,13.52736 -15.85237,13.52736z" data-paper-data="{&quot;glyphName&quot;:&quot;B&quot;,&quot;glyphIndex&quot;:2,&quot;word&quot;:1}" style="" fill="#FFFFFF"></path><path d="M331.64581,292.01324l1.69092,-0.63409v-0.84546h-21.34786v0.84546l1.69092,0.63409c2.64206,1.05682 4.33298,3.5932 4.33298,6.44663v48.50826c0,2.85343 -1.69092,5.38981 -4.33298,6.44663l-1.69092,0.63409v0.84546h21.34786v-0.84546l-1.69092,-0.63409c-2.64206,-1.05682 -4.33298,-3.5932 -4.33298,-6.44663v-48.50826c0,-2.85343 1.69092,-5.38981 4.33298,-6.44663z" data-paper-data="{&quot;glyphName&quot;:&quot;I&quot;,&quot;glyphIndex&quot;:3,&quot;word&quot;:1}" style="" fill="#FFFFFF"></path><path d="M401.50194,290.63936h-55.80035l-1.7966,12.47053l0.84546,0.10568l4.96708,-5.60117c1.26819,-1.47955 3.17047,-2.32501 5.07276,-2.32501h14.16145v51.67874c0,2.85343 -1.69092,5.38981 -4.33298,6.44663l-1.69092,0.63409v0.84546h21.34786v-0.84546l-1.69092,-0.63409c-2.64206,-1.05682 -4.33298,-3.5932 -4.33298,-6.44663v-51.67874h14.16145c1.90228,0 3.80457,0.84546 5.07276,2.32501l4.96708,5.60117l0.84546,-0.10568z" data-paper-data="{&quot;glyphName&quot;:&quot;T&quot;,&quot;glyphIndex&quot;:4,&quot;word&quot;:1}" style="" fill="#FFFFFF"></path><path d="M433.52373,292.01324l1.69092,-0.63409v-0.84546h-21.34786v0.84546l1.69092,0.63409c2.64206,1.05682 4.33298,3.5932 4.33298,6.44663v48.50826c0,2.85343 -1.69092,5.38981 -4.33298,6.44663l-1.69092,0.63409v0.84546h21.34786v-0.84546l-1.69092,-0.63409c-2.64206,-1.05682 -4.33298,-3.5932 -4.33298,-6.44663v-48.50826c0,-2.85343 1.69092,-5.38981 4.33298,-6.44663z" data-paper-data="{&quot;glyphName&quot;:&quot;I&quot;,&quot;glyphIndex&quot;:5,&quot;lastGlyphOfWord&quot;:true,&quot;word&quot;:1}" style="" fill="#FFFFFF"></path></g><g data-paper-data="{&quot;selectedEffects&quot;:{&quot;container&quot;:&quot;&quot;,&quot;transformation&quot;:&quot;&quot;,&quot;pattern&quot;:&quot;&quot;},&quot;initialText&quot;:&quot;OO&quot;,&quot;isIcon&quot;:&quot;true&quot;,&quot;iconType&quot;:&quot;initial&quot;,&quot;iconStyle&quot;:&quot;standalone&quot;,&quot;rawInitialId&quot;:543,&quot;monogramSpecial&quot;:&quot;melted-letters&quot;,&quot;bounds&quot;:{&quot;x&quot;:211.44368857818074,&quot;y&quot;:114.99999999999997,&quot;width&quot;:127.11262284363852,&quot;height&quot;:144.2293336459828},&quot;fillRule&quot;:&quot;nonzero&quot;,&quot;suitableAsStandaloneIcon&quot;:true}" fill="#6D2077"><path d="M244.97561,133.23912c3.50752,-0.2806 8.13745,-0.4209 14.45099,-0.4209c4.06873,-4.77023 9.25986,-7.01505 15.4331,-7.01505c6.59414,0 12.06588,2.10451 16.27491,7.01505c3.36722,4.62993 4.62993,5.89264 7.01505,13.74949c2.80602,9.40016 4.34933,22.58845 4.34933,39.84546c0,17.53761 -1.54331,31.1468 -4.62993,41.10817c4.06873,0 12.06588,-0.7015 12.90768,-1.12241c2.80602,-10.94347 4.06873,-24.41236 4.06873,-40.40666c0,-15.1525 -1.12241,-27.91988 -3.64782,-38.16185c-0.7015,-2.80602 -2.52542,-9.25986 -4.48963,-13.18829c-6.31354,-13.04798 -16.55551,-19.64213 -31.5677,-19.64213c-13.46889,0 -23.43025,6.17324 -30.1647,18.23912zM229.2619,222.8914c-4.20903,-4.48963 -5.33143,-12.06588 -5.33143,-35.77673c0,-23.85115 1.12241,-31.2871 5.33143,-35.77673c5.05083,-5.33143 13.88979,-5.89264 24.83326,-6.17324c5.61204,-0.1403 12.62708,-0.2806 21.46604,-0.2806c8.41805,0 15.2928,0.1403 20.76453,0.2806c-0.98211,-3.36722 -3.22692,-7.99715 -5.75234,-11.08377c-4.48963,-0.1403 -9.40016,-0.1403 -15.0122,-0.1403c-5.89264,0 -10.94347,0.1403 -15.5734,0.1403c-5.75234,0.1403 -11.50467,0.1403 -17.25701,0.5612c-13.88979,0.98211 -18.37942,3.50752 -23.28995,8.83896c-6.45384,7.01505 -7.99715,15.1525 -7.99715,43.63358c0,28.48108 1.54331,36.61854 7.99715,43.63358c4.91053,5.33143 9.25986,7.71655 22.86905,8.69866c-1.68361,-3.36722 -3.08662,-7.29565 -4.20903,-11.64498c-4.48963,-0.98211 -6.59414,-2.52542 -8.83896,-4.91053zM330.55916,143.48108c-4.91053,-5.19113 -9.40016,-7.57625 -22.44815,-8.69866c1.68361,3.50752 2.94632,7.43595 4.06873,11.92558c4.34933,0.98211 6.73444,2.38512 8.55836,4.62993c4.20903,4.48963 5.47174,11.92558 5.47174,35.77673c0,23.71085 -1.26271,31.2871 -5.47174,35.77673c-4.91053,5.19113 -13.74949,5.89264 -24.69296,6.17324c-5.47174,0.1403 -12.34648,0.2806 -21.18544,0.2806c-8.41805,0 -15.2928,-0.1403 -20.62423,-0.2806c0.4209,1.26271 0.84181,2.52542 1.40301,3.64782c1.26271,2.94632 2.66572,5.33143 4.34933,7.43595c4.34933,0 9.40016,0.1403 14.8719,0.1403c5.89264,0 10.94347,-0.1403 15.4331,-0.1403c12.76738,-0.4209 15.9943,-0.5612 17.25701,-0.7015c13.60919,-0.98211 18.09882,-3.36722 23.00935,-8.69866c6.45384,-7.01505 7.99715,-15.1525 7.99715,-43.77388c0,-28.34078 -1.40301,-36.47824 -7.99715,-43.49328zM305.305,240.99022l-14.31069,0.4209c-4.20903,4.91053 -9.40016,7.29565 -15.9943,7.29565c-6.31354,0 -11.64498,-2.38512 -15.5734,-7.29565c-3.50752,-4.48963 -5.75234,-9.11956 -7.15535,-13.60919c-3.08662,-10.24197 -4.77023,-23.99146 -4.77023,-41.80967c0,-16.69581 1.68361,-29.74379 4.77023,-39.42456c-1.12241,-0.1403 -9.96136,0.4209 -12.90768,1.12241c-2.80602,10.52257 -4.20903,23.43025 -4.20903,38.72305c0,28.90199 3.78812,39.56486 4.34933,41.38877c0.1403,0.2806 1.96421,7.01505 4.20903,11.78528c6.31354,12.90768 16.27491,19.64213 30.8662,19.64213c14.45099,0 24.41236,-6.45384 30.7259,-18.23912z" data-paper-data="{&quot;isPathIcon&quot;:true}" style="" fill="#FFFFFF"></path></g></g></g><g class="watermark-group" style="opacity:0.040000010281801224"><path class="watermark-path" d="M129.52,370.3a11.88,11.88,0,0,1,2.58,5.58,12,12,0,0,1,.11,3,11.81,11.81,0,0,1-.64,2.93,12.34,12.34,0,0,1-1.41,2.72,11.65,11.65,0,0,1-2.13,2.32,12,12,0,0,1-2.64,1.69,13,13,0,0,1-2.91.9,12.47,12.47,0,0,1-3,.12,12.17,12.17,0,0,1-2.93-.64,11.8,11.8,0,0,1-2.72-1.38,12.19,12.19,0,0,1-4-4.79,11.85,11.85,0,0,1-.89-2.92,12.14,12.14,0,0,1-.13-3,11.54,11.54,0,0,1,.64-2.92,11.67,11.67,0,0,1,3.5-5,11.44,11.44,0,0,1,2.67-1.69,11.64,11.64,0,0,1,2.92-.91,10.71,10.71,0,0,1,3-.12,11.68,11.68,0,0,1,5.66,2,11.7,11.7,0,0,1,2.34,2.12m-1.4,8.76a13,13,0,0,1-1.22,2.32,9.68,9.68,0,0,1-1.81,2,7.44,7.44,0,0,1-2.38,1.37,6.17,6.17,0,0,1-5.11-.46,8.73,8.73,0,0,1-3.85-4.58,6.69,6.69,0,0,1-.34-2.66,6.09,6.09,0,0,1,.77-2.47,7.15,7.15,0,0,1,1.75-2.11,9.58,9.58,0,0,1,1.09-.81,8.23,8.23,0,0,1,1.12-.63,8.14,8.14,0,0,1,1.19-.46,12.71,12.71,0,0,1,1.32-.37l2,2.38a12.83,12.83,0,0,0-1.56.17,7.86,7.86,0,0,0-1.23.32,4.5,4.5,0,0,0-1,.49,6.41,6.41,0,0,0-.93.67,4.49,4.49,0,0,0-1.15,1.39,3.87,3.87,0,0,0-.45,1.58,4.12,4.12,0,0,0,.26,1.63,6.11,6.11,0,0,0,2.36,2.82,4.43,4.43,0,0,0,1.57.53,3.91,3.91,0,0,0,1.62-.17,4.71,4.71,0,0,0,1.57-.89,10.5,10.5,0,0,0,.83-.79,5.71,5.71,0,0,0,.65-.93,10.13,10.13,0,0,0,.54-1.14,12.24,12.24,0,0,0,.44-1.49l2,2.33m-14.46,4.55a8.86,8.86,0,0,0,2.78,2.22,9,9,0,0,0,3.29.94,9.15,9.15,0,0,0,3.39-.37,8.68,8.68,0,0,0,3.11-1.69,8.8,8.8,0,0,0,2.22-2.78,9.15,9.15,0,0,0,1-3.29,8.95,8.95,0,0,0-4.83-8.76,9,9,0,0,0-6.73-.57,9,9,0,0,0-5.33,4.47,8.94,8.94,0,0,0-.57,6.71,8.76,8.76,0,0,0,1.7,3.12" style="" fill="#FFFFFF"></path><path class="watermark-path" d="M147,349c-.48.12-1.09.31-1.82.57a24.37,24.37,0,0,0-2.4,1A28.35,28.35,0,0,0,140,352a20.72,20.72,0,0,0-2.71,1.94c-.7.59-1.28,1.11-1.74,1.57a15.07,15.07,0,0,0-1.1,1.22,4.09,4.09,0,0,0-.59.92,2.32,2.32,0,0,0-.22.64,1.16,1.16,0,0,0,0,.47,1.83,1.83,0,0,0,.18.29,1.15,1.15,0,0,0,1,.37,5.54,5.54,0,0,0,1.51-.38q.87-.35,1.95-.9l2.26-1.18q1.2-.65,2.49-1.29c.87-.44,1.73-.83,2.59-1.17a18.94,18.94,0,0,1,2.6-.81,9.27,9.27,0,0,1,2.46-.29,6.25,6.25,0,0,1,2.24.49,5.12,5.12,0,0,1,1.89,1.47,6.35,6.35,0,0,1,1.41,2.61,6,6,0,0,1,.09,2.6,8.3,8.3,0,0,1-.9,2.52,17.79,17.79,0,0,1-1.62,2.37,23.92,23.92,0,0,1-2,2.15c-.72.67-1.41,1.29-2.09,1.87a33.79,33.79,0,0,1-5.33,3.7,32.29,32.29,0,0,1-4.91,2.28l-3.61-4.3a21.38,21.38,0,0,0,5.39-1.87,27.2,27.2,0,0,0,5.4-3.56,21.59,21.59,0,0,0,2.38-2.27,8.67,8.67,0,0,0,1.18-1.7,2.32,2.32,0,0,0,.27-1.19,1.34,1.34,0,0,0-.28-.74,1.21,1.21,0,0,0-1-.42,4.32,4.32,0,0,0-1.55.34,15.77,15.77,0,0,0-2,.88c-.72.37-1.48.77-2.27,1.21l-2.45,1.3c-.85.45-1.7.85-2.56,1.21a22.37,22.37,0,0,1-2.54.86,10,10,0,0,1-2.43.32,5.76,5.76,0,0,1-2.2-.45,5,5,0,0,1-1.89-1.45,6.12,6.12,0,0,1-1.31-2.41,6,6,0,0,1-.1-2.41,8.28,8.28,0,0,1,.81-2.38,14.06,14.06,0,0,1,1.49-2.24,22.37,22.37,0,0,1,1.85-2.05q1-1,2-1.77c.7-.59,1.44-1.15,2.23-1.7s1.62-1.06,2.44-1.53,1.63-.91,2.43-1.3,1.58-.75,2.3-1L147,349" style="" fill="#FFFFFF"></path><path class="watermark-path" d="M186.76,337.57l-10.6-12.63,3.92,18.24-4.66,3.91-17.27-7,10.6,12.63-4.86,4.07-15.09-18,6.59-5.54,18.69,7.52-4.15-19.71,6.57-5.52,15.09,18-4.83,4.05" style="" fill="#FFFFFF"></path><path class="watermark-path" d="M208.84,313.24l-10,8.42,1.16,4.82L194.56,331l-5.68-25.89,5.42-4.55,24.51,10.09-5.42,4.55-4.55-2m-11.23,3.45,6.57-5.52-8.83-3.87,2.26,9.39" style="" fill="#FFFFFF"></path><path class="watermark-path" d="M227.49,281.38c-.48.12-1.09.31-1.82.57a24.37,24.37,0,0,0-2.4,1,26.11,26.11,0,0,0-2.7,1.47,20.72,20.72,0,0,0-2.71,1.94c-.7.59-1.28,1.11-1.74,1.57a13.39,13.39,0,0,0-1.1,1.22,4.29,4.29,0,0,0-.59.91,2.48,2.48,0,0,0-.22.65,1.16,1.16,0,0,0,0,.47,1.83,1.83,0,0,0,.18.29,1.15,1.15,0,0,0,1,.37,5.54,5.54,0,0,0,1.51-.38q.87-.34,2-.9l2.26-1.18q1.2-.64,2.49-1.29c.87-.44,1.73-.83,2.59-1.17a18.94,18.94,0,0,1,2.6-.81,9.27,9.27,0,0,1,2.46-.29,6.08,6.08,0,0,1,2.24.49,5.09,5.09,0,0,1,1.89,1.46,6.47,6.47,0,0,1,1.41,2.61,6.07,6.07,0,0,1,.09,2.61,8.3,8.3,0,0,1-.9,2.52,16.32,16.32,0,0,1-1.63,2.36,21.41,21.41,0,0,1-2,2.16c-.72.67-1.41,1.29-2.1,1.86a33.36,33.36,0,0,1-5.32,3.71,31.92,31.92,0,0,1-4.92,2.28l-3.6-4.3a21.38,21.38,0,0,0,5.39-1.87,27.2,27.2,0,0,0,5.4-3.56,21.59,21.59,0,0,0,2.38-2.27,8.67,8.67,0,0,0,1.18-1.7A2.32,2.32,0,0,0,231,293a1.34,1.34,0,0,0-.28-.74,1.21,1.21,0,0,0-1-.42,4.32,4.32,0,0,0-1.55.34,16.54,16.54,0,0,0-2,.88c-.71.37-1.47.77-2.26,1.21l-2.46,1.3c-.84.44-1.7.85-2.55,1.21a24.53,24.53,0,0,1-2.54.86A10,10,0,0,1,214,298a5.76,5.76,0,0,1-2.2-.45,5,5,0,0,1-1.89-1.45,6.12,6.12,0,0,1-1.31-2.41,5.78,5.78,0,0,1-.1-2.41,8,8,0,0,1,.81-2.38,14.61,14.61,0,0,1,1.49-2.25,22.26,22.26,0,0,1,1.85-2q1-1,2-1.77c.7-.59,1.44-1.15,2.23-1.7s1.62-1.06,2.44-1.53,1.63-.91,2.43-1.31,1.58-.74,2.3-1l3.5,4.16" style="" fill="#FFFFFF"></path><path class="watermark-path" d="M261.64,274.74l-6.29-7.5L243,277.61l6.3,7.5-4.86,4.07-15.09-18,4.85-4.08,5.49,6.55L252,263.3l-5.49-6.55,4.86-4.07,15.09,18-4.86,4.08" style="" fill="#FFFFFF"></path><path class="watermark-path" d="M272.18,265.9l-15.09-18,4.86-4.08,15.09,18-4.86,4.08" style="" fill="#FFFFFF"></path><path class="watermark-path" d="M299.65,242.85l-22.51-2.18L287.51,253l-4.85,4.08-15.1-18,5.28-4.43,22.56,2.22L285,224.5l4.83-4.06,15.09,18-5.26,4.42" style="" fill="#FFFFFF"></path><path class="watermark-path" d="M306.68,205.52a31.88,31.88,0,0,1,5.29-3.66,34.48,34.48,0,0,1,5.14-2.35l3.69,4.39a20.77,20.77,0,0,0-2.37.61,20.47,20.47,0,0,0-2.61,1,25.12,25.12,0,0,0-2.76,1.49,23.9,23.9,0,0,0-2.8,2,20.42,20.42,0,0,0-2.8,2.77,12.77,12.77,0,0,0-1.64,2.52,7,7,0,0,0-.68,2.24,6,6,0,0,0,.66,3.64,8.16,8.16,0,0,0,.94,1.38,9.12,9.12,0,0,0,1.08,1.07,6.39,6.39,0,0,0,1.47.91,6.73,6.73,0,0,0,1.88.48,6.54,6.54,0,0,0,2.28-.18,11.67,11.67,0,0,0,2.74-1.07,19.38,19.38,0,0,0,3.18-2.22c.57-.48,1.06-.92,1.46-1.31a14.57,14.57,0,0,0,1-1.13,11.46,11.46,0,0,0,.81-1.05l.74-1.09-1.82-2.17-5.45,4.57-3.31-3.94,10.31-8.65,7.71,9.19a29,29,0,0,1-1.67,2.43q-1,1.26-2.1,2.52c-.74.84-1.5,1.65-2.3,2.44s-1.58,1.5-2.33,2.14a31,31,0,0,1-3.59,2.61,22.55,22.55,0,0,1-3.64,1.83,15.64,15.64,0,0,1-3.63.89,10.72,10.72,0,0,1-3.49-.15,10.45,10.45,0,0,1-3.28-1.33,12.54,12.54,0,0,1-3-2.67,12,12,0,0,1-2.08-3.44,10.45,10.45,0,0,1-.71-3.5,11.14,11.14,0,0,1,.51-3.51,15.72,15.72,0,0,1,1.56-3.43,21.62,21.62,0,0,1,2.42-3.28,30.3,30.3,0,0,1,3.15-3" style="" fill="#FFFFFF"></path><path class="watermark-path" d="M336.91,211.59l-15.1-18,4.86-4.08,11.79,14,13.13-11,3.31,3.94-18,15.1" style="" fill="#FFFFFF"></path><path class="watermark-path" d="M374.54,164.71a12.28,12.28,0,0,1,2.59,4.81,10.44,10.44,0,0,1,0,5,14.62,14.62,0,0,1-2.33,5,25.55,25.55,0,0,1-4.56,4.85,26.07,26.07,0,0,1-5.6,3.67,14.79,14.79,0,0,1-5.38,1.43,10.43,10.43,0,0,1-4.94-.89,13.24,13.24,0,0,1-6.87-8.18,10.48,10.48,0,0,1,0-5,14.51,14.51,0,0,1,2.36-5,25.23,25.23,0,0,1,4.57-4.89,25,25,0,0,1,5.59-3.64,14.45,14.45,0,0,1,5.35-1.43,10.31,10.31,0,0,1,4.93.92,12.22,12.22,0,0,1,4.28,3.38m-4.91,4.11a8.36,8.36,0,0,0-2-1.72,5.5,5.5,0,0,0-2.65-.85,7.72,7.72,0,0,0-3.32.57,14.49,14.49,0,0,0-4,2.52,16.72,16.72,0,0,0-2.38,2.4,10.15,10.15,0,0,0-1.39,2.24,6.71,6.71,0,0,0-.56,2.1,5.69,5.69,0,0,0,.1,1.9,6.21,6.21,0,0,0,.61,1.69,9.85,9.85,0,0,0,1,1.44,10.48,10.48,0,0,0,1.26,1.23,6.67,6.67,0,0,0,1.57.92,6.1,6.1,0,0,0,1.85.41,6.8,6.8,0,0,0,2.15-.2,11.06,11.06,0,0,0,2.45-1,17.67,17.67,0,0,0,2.77-1.94,14.39,14.39,0,0,0,3.18-3.52,7.74,7.74,0,0,0,1.14-3.17,5.54,5.54,0,0,0-.37-2.74,8.52,8.52,0,0,0-1.36-2.3" style="" fill="#FFFFFF"></path><path class="watermark-path" d="M382.66,141.76A32.3,32.3,0,0,1,388,138.1a34.12,34.12,0,0,1,5.15-2.35l3.69,4.4a19.62,19.62,0,0,0-2.37.6,22.08,22.08,0,0,0-2.61,1,26,26,0,0,0-2.77,1.49,23.9,23.9,0,0,0-2.8,2,21,21,0,0,0-2.8,2.78,13.19,13.19,0,0,0-1.64,2.51,7.29,7.29,0,0,0-.68,2.24,6.36,6.36,0,0,0,.06,2,5.8,5.8,0,0,0,.61,1.68,8.12,8.12,0,0,0,.93,1.38,9.16,9.16,0,0,0,1.08,1.08,6.56,6.56,0,0,0,1.48.9,6,6,0,0,0,1.87.48,6.76,6.76,0,0,0,2.28-.17,12,12,0,0,0,2.74-1.08,18.57,18.57,0,0,0,3.18-2.22c.58-.48,1.06-.92,1.46-1.31s.75-.77,1.05-1.12.57-.72.81-1.06l.73-1.09-1.82-2.17-5.45,4.57-3.3-3.94,10.3-8.65,7.71,9.19a29,29,0,0,1-1.67,2.43q-1,1.26-2.1,2.52c-.73.84-1.5,1.66-2.3,2.44s-1.57,1.5-2.33,2.14a31,31,0,0,1-3.59,2.61,22.15,22.15,0,0,1-3.64,1.83,15.56,15.56,0,0,1-3.62.89,11,11,0,0,1-3.49-.14,10.84,10.84,0,0,1-3.28-1.33,12.82,12.82,0,0,1-3-2.68,12.12,12.12,0,0,1-2.08-3.43A10.71,10.71,0,0,1,375,155a11.18,11.18,0,0,1,.51-3.51,15.51,15.51,0,0,1,1.57-3.43,21.44,21.44,0,0,1,2.42-3.28,30.19,30.19,0,0,1,3.14-3" style="" fill="#FFFFFF"></path><path class="watermark-path" d="M428.63,119.31a12.26,12.26,0,0,1,2.59,4.82,10.44,10.44,0,0,1,0,5,14.53,14.53,0,0,1-2.34,5,25.29,25.29,0,0,1-4.56,4.86,26,26,0,0,1-5.59,3.67,14.84,14.84,0,0,1-5.38,1.43,10.61,10.61,0,0,1-4.95-.89,12.15,12.15,0,0,1-4.3-3.37,12,12,0,0,1-2.56-4.81,10.48,10.48,0,0,1,0-5,14.39,14.39,0,0,1,2.35-5,27.89,27.89,0,0,1,10.16-8.53,14.49,14.49,0,0,1,5.36-1.43,10.27,10.27,0,0,1,4.92.92,12.21,12.21,0,0,1,4.28,3.37m-4.91,4.12a8.17,8.17,0,0,0-2-1.72,5.58,5.58,0,0,0-2.65-.86,7.86,7.86,0,0,0-3.31.58,14.49,14.49,0,0,0-4,2.52,16.21,16.21,0,0,0-2.38,2.4,9.85,9.85,0,0,0-1.4,2.24,7,7,0,0,0-.56,2.1,6,6,0,0,0,.1,1.9,6.23,6.23,0,0,0,.62,1.69,8.49,8.49,0,0,0,1,1.44,9.18,9.18,0,0,0,1.26,1.23,6.67,6.67,0,0,0,1.57.92,6,6,0,0,0,1.84.41,6.86,6.86,0,0,0,2.16-.2,11.26,11.26,0,0,0,2.45-1,17.62,17.62,0,0,0,2.76-1.94,14.67,14.67,0,0,0,3.19-3.52,7.71,7.71,0,0,0,1.13-3.17,5.53,5.53,0,0,0-.36-2.74,8.55,8.55,0,0,0-1.37-2.3" style="" fill="#FFFFFF"></path></g></svg>