<svg width="30" height="31" viewBox="0 0 30 31" fill="none" xmlns="http://www.w3.org/2000/svg">
<rect width="28.7432" height="30.2176" transform="translate(0.439331 0.665588)" fill="none"/>
<path d="M10.3443 29.3094H5.50584C3.09859 29.3094 1.93689 28.1385 1.93689 25.7211V5.82779C1.93689 3.41037 3.11057 2.23944 5.50584 2.23944H10.3443C12.7515 2.23944 13.9132 3.41037 13.9132 5.82779V25.7211C13.9132 28.1385 12.7395 29.3094 10.3443 29.3094ZM5.50584 4.12804C3.98484 4.12804 3.73334 4.55613 3.73334 5.82779V25.7211C3.73334 26.9927 3.98484 27.4208 5.50584 27.4208H10.3443C11.8653 27.4208 12.1168 26.9927 12.1168 25.7211V5.82779C12.1168 4.55613 11.8653 4.12804 10.3443 4.12804H5.50584Z" fill="black"/>
<path d="M24.1164 17.9778H19.2779C16.8707 17.9778 15.709 16.8069 15.709 14.3894V5.82779C15.709 3.41037 16.8827 2.23944 19.2779 2.23944H24.1164C26.5236 2.23944 27.6853 3.41037 27.6853 5.82779V14.3894C27.6853 16.8069 26.5116 17.9778 24.1164 17.9778ZM19.2779 4.12804C17.7569 4.12804 17.5054 4.55613 17.5054 5.82779V14.3894C17.5054 15.6611 17.7569 16.0892 19.2779 16.0892H24.1164C25.6374 16.0892 25.8889 15.6611 25.8889 14.3894V5.82779C25.8889 4.55613 25.6374 4.12804 24.1164 4.12804H19.2779Z" fill="black"/>
<path d="M24.1164 29.3088H19.2779C16.8707 29.3088 15.709 28.1379 15.709 25.7205V23.4541C15.709 21.0367 16.8827 19.8658 19.2779 19.8658H24.1164C26.5236 19.8658 27.6853 21.0367 27.6853 23.4541V25.7205C27.6853 28.1379 26.5116 29.3088 24.1164 29.3088ZM19.2779 21.7544C17.7569 21.7544 17.5054 22.1825 17.5054 23.4541V25.7205C17.5054 26.9921 17.7569 27.4202 19.2779 27.4202H24.1164C25.6374 27.4202 25.8889 26.9921 25.8889 25.7205V23.4541C25.8889 22.1825 25.6374 21.7544 24.1164 21.7544H19.2779Z" fill="black"/>
</svg>
