<svg width="29" height="30" viewBox="0 0 29 30" fill="none" xmlns="http://www.w3.org/2000/svg">
<path d="M14.8387 14.7359C14.8044 14.7359 14.7816 14.7359 14.7473 14.7359C14.6902 14.7239 14.6103 14.7239 14.5418 14.7359C11.231 14.6279 8.7308 11.8914 8.7308 8.51881C8.7308 5.08618 11.3909 2.28967 14.656 2.28967C17.9211 2.28967 20.5812 5.08618 20.5812 8.51881C20.5698 11.8914 18.0581 14.6279 14.8729 14.7359C14.8615 14.7359 14.8501 14.7359 14.8387 14.7359ZM14.656 4.09C12.3384 4.09 10.4433 6.08237 10.4433 8.51881C10.4433 10.9192 12.2243 12.8516 14.4962 12.9356C14.5532 12.9236 14.7131 12.9236 14.8615 12.9356C17.0991 12.8276 18.8573 10.8952 18.8687 8.51881C18.8687 6.08237 16.9736 4.09 14.656 4.09Z" fill="black"/>
<path d="M14.8501 27.8543C12.6124 27.8543 10.3634 27.2541 8.66229 26.0539C7.07539 24.9497 6.20773 23.4375 6.20773 21.7931C6.20773 20.1488 7.07539 18.6246 8.66229 17.5084C12.0873 15.1199 17.6357 15.1199 21.0378 17.5084C22.6133 18.6126 23.4924 20.1248 23.4924 21.7691C23.4924 23.4134 22.6247 24.9377 21.0378 26.0539C19.3254 27.2541 17.0877 27.8543 14.8501 27.8543ZM9.60987 19.0206C8.51388 19.7888 7.92022 20.773 7.92022 21.8052C7.92022 22.8253 8.52529 23.8095 9.60987 24.5657C12.4526 26.57 17.2475 26.57 20.0903 24.5657C21.1863 23.7975 21.7799 22.8133 21.7799 21.7811C21.7799 20.761 21.1748 19.7768 20.0903 19.0206C17.2475 17.0283 12.4526 17.0283 9.60987 19.0206Z" fill="black"/>
</svg>
