<svg width="32" height="33" viewBox="0 0 32 33" fill="none" xmlns="http://www.w3.org/2000/svg">
<path d="M15.8602 17.7875C15.1396 17.7875 14.5734 17.1787 14.5734 16.4346C14.5734 15.6905 15.1524 15.0817 15.8602 15.0817C16.568 15.0817 17.1471 15.6905 17.1471 16.4346C17.1471 17.1787 16.5809 17.7875 15.8602 17.7875Z" fill="black"/>
<path d="M21.008 17.7875C20.2874 17.7875 19.7212 17.1787 19.7212 16.4346C19.7212 15.6905 20.3003 15.0817 21.008 15.0817C21.7158 15.0817 22.2949 15.6905 22.2949 16.4346C22.2949 17.1787 21.7287 17.7875 21.008 17.7875Z" fill="black"/>
<path d="M10.7125 17.7875C9.99187 17.7875 9.42566 17.1787 9.42566 16.4346C9.42566 15.6905 10.0047 15.0817 10.7125 15.0817C11.4203 15.0817 11.9994 15.6905 11.9994 16.4346C11.9994 17.1787 11.4332 17.7875 10.7125 17.7875Z" fill="black"/>
</svg>
