<svg width="29" height="30" viewBox="0 0 29 30" fill="none" xmlns="http://www.w3.org/2000/svg">
<path d="M14.6565 19.7314C12.2932 19.7314 10.3752 17.715 10.3752 15.2306C10.3752 12.7461 12.2932 10.7297 14.6565 10.7297C17.0197 10.7297 18.9377 12.7461 18.9377 15.2306C18.9377 17.715 17.0197 19.7314 14.6565 19.7314ZM14.6565 12.5301C13.2408 12.5301 12.0877 13.7423 12.0877 15.2306C12.0877 16.7188 13.2408 17.9311 14.6565 17.9311C16.0721 17.9311 17.2252 16.7188 17.2252 15.2306C17.2252 13.7423 16.0721 12.5301 14.6565 12.5301Z" fill="black"/>
<path d="M18.3211 27.4607C18.0814 27.4607 17.8416 27.4247 17.6019 27.3647C16.8941 27.1607 16.3004 26.6926 15.9237 26.0325L15.7867 25.7924C15.1131 24.5682 14.1884 24.5682 13.5148 25.7924L13.3892 26.0205C13.0124 26.6926 12.4188 27.1727 11.711 27.3647C10.9917 27.5688 10.2496 27.4607 9.62173 27.0647L7.65808 25.8764C6.96167 25.4564 6.45935 24.7722 6.24243 23.9441C6.03693 23.1159 6.13968 22.2638 6.53926 21.5317C6.87034 20.9195 6.96167 20.3674 6.76759 20.0194C6.57351 19.6713 6.0826 19.4673 5.40902 19.4673C3.74221 19.4673 2.38364 18.039 2.38364 16.2867V14.1743C2.38364 12.422 3.74221 10.9937 5.40902 10.9937C6.0826 10.9937 6.57351 10.7897 6.76759 10.4416C6.96167 10.0936 6.88176 9.54147 6.53926 8.92936C6.13968 8.19722 6.03693 7.33306 6.24243 6.51691C6.44793 5.68876 6.95026 5.00464 7.65808 4.58456L9.63315 3.39635C10.9232 2.5922 12.6243 3.06028 13.4006 4.44054L13.5376 4.68058C14.2112 5.9048 15.1359 5.9048 15.8095 4.68058L15.9351 4.45254C16.7114 3.06028 18.4125 2.5922 19.714 3.40835L21.6776 4.59656C22.374 5.01664 22.8763 5.70077 23.0933 6.52892C23.2988 7.35707 23.196 8.20922 22.7964 8.94136C22.4654 9.55347 22.374 10.1056 22.5681 10.4536C22.7622 10.8017 23.2531 11.0057 23.9267 11.0057C25.5935 11.0057 26.9521 12.434 26.9521 14.1863V16.2987C26.9521 18.051 25.5935 19.4793 23.9267 19.4793C23.2531 19.4793 22.7622 19.6833 22.5681 20.0314C22.374 20.3794 22.4539 20.9315 22.7964 21.5437C23.196 22.2758 23.3102 23.1399 23.0933 23.9561C22.8878 24.7842 22.3854 25.4684 21.6776 25.8884L19.7025 27.0767C19.2687 27.3287 18.8006 27.4607 18.3211 27.4607ZM14.6564 23.0199C15.6725 23.0199 16.6201 23.692 17.2708 24.8803L17.3964 25.1083C17.5334 25.3604 17.7617 25.5404 18.0357 25.6124C18.3097 25.6844 18.5837 25.6484 18.8121 25.5044L20.7871 24.3042C21.084 24.1241 21.3123 23.8241 21.4036 23.464C21.4949 23.1039 21.4493 22.7319 21.278 22.4198C20.6273 21.2436 20.5474 20.0314 21.0497 19.1072C21.552 18.183 22.5909 17.6549 23.8924 17.6549C24.6231 17.6549 25.2053 17.0428 25.2053 16.2747V14.1623C25.2053 13.4062 24.6231 12.7821 23.8924 12.7821C22.5909 12.7821 21.552 12.254 21.0497 11.3298C20.5474 10.4056 20.6273 9.1934 21.278 8.01719C21.4493 7.70513 21.4949 7.33306 21.4036 6.973C21.3123 6.61293 21.0954 6.32488 20.7985 6.13284L18.8235 4.94463C18.3326 4.63257 17.6818 4.8126 17.385 5.3407L17.2594 5.56874C16.6087 6.75696 15.6611 7.42908 14.645 7.42908C13.6289 7.42908 12.6814 6.75696 12.0306 5.56874L11.905 5.3287C11.6196 4.82461 10.9803 4.64457 10.4894 4.94463L8.51433 6.14485C8.2175 6.32488 7.98916 6.62493 7.89783 6.985C7.8065 7.34507 7.85217 7.71713 8.02341 8.02919C8.67416 9.20541 8.75407 10.4176 8.25174 11.3418C7.74942 12.266 6.71051 12.7941 5.40902 12.7941C4.67836 12.7941 4.09612 13.4062 4.09612 14.1743V16.2867C4.09612 17.0428 4.67836 17.6669 5.40902 17.6669C6.71051 17.6669 7.74942 18.195 8.25174 19.1192C8.75407 20.0434 8.67416 21.2556 8.02341 22.4318C7.85217 22.7439 7.8065 23.1159 7.89783 23.476C7.98916 23.8361 8.20608 24.1241 8.50291 24.3162L10.478 25.5044C10.7177 25.6604 11.0031 25.6964 11.2657 25.6244C11.5397 25.5524 11.768 25.3604 11.9165 25.1083L12.042 24.8803C12.6928 23.7041 13.6404 23.0199 14.6564 23.0199Z" fill="black"/>
</svg>
